<svg width="101" height="123" viewBox="0 0 101 123" fill="none" xmlns="http://www.w3.org/2000/svg">
<path d="M100.5 50.524C100.5 57.3654 97.3981 65.2601 92.6783 73.2945C87.9655 81.3169 81.6746 89.4206 75.3727 96.6661C69.0725 103.91 62.7708 110.284 58.0433 114.849C55.6799 117.131 53.7107 118.96 52.3328 120.218C51.6439 120.847 51.1029 121.333 50.7343 121.661C50.6463 121.74 50.568 121.81 50.5 121.87C50.432 121.81 50.3537 121.74 50.2657 121.661C49.8971 121.333 49.3561 120.847 48.6672 120.218C47.2893 118.96 45.3201 117.131 42.9567 114.849C38.2292 110.284 31.9275 103.91 25.6273 96.6661C19.3254 89.4206 13.0345 81.3169 8.32174 73.2945C3.60191 65.2601 0.5 57.3654 0.5 50.524C0.5 22.8963 22.886 0.5 50.5 0.5C78.114 0.5 100.5 22.8963 100.5 50.524Z" fill="white" stroke="#1F8505"/>
<path d="M74.0099 54.3138C74.0099 67.9376 62.9655 78.982 49.3417 78.982C35.7178 78.982 24.6735 67.9376 24.6735 54.3138C24.6735 40.6899 35.7178 29.6456 49.3417 29.6456C62.9655 29.6456 74.0099 40.6899 74.0099 54.3138Z" fill="#1F8505"/>
<path d="M65.3529 54.2133C65.3529 62.8265 58.5368 69.8089 50.1287 69.8089C41.7206 69.8089 34.9044 62.8265 34.9044 54.2133C34.9044 45.6001 41.7206 38.6177 50.1287 38.6177C58.5368 38.6177 65.3529 45.6001 65.3529 54.2133Z" fill="white"/>
<circle cx="29.0951" cy="36.8598" r="10.9378" fill="#1F8505"/>
<circle cx="70.0536" cy="36.8598" r="10.9378" fill="#1F8505"/>
</svg>
