<svg width="136" height="165" viewBox="0 0 136 165" fill="none" xmlns="http://www.w3.org/2000/svg">
<path d="M136 68.0323C136 105.605 68 165 68 165C68 165 0 105.605 0 68.0323C0 30.4591 30.4446 0 68 0C105.555 0 136 30.4591 136 68.0323Z" fill="#D6B0B0"/>
<path d="M101.433 73.2166C101.433 91.5616 86.5616 106.433 68.2166 106.433C49.8716 106.433 35 91.5616 35 73.2166C35 54.8716 49.8716 40 68.2166 40C86.5616 40 101.433 54.8716 101.433 73.2166Z" fill="#1F8505"/>
<circle cx="40.7281" cy="54.7281" r="14.7281" fill="#1F8505"/>
<circle cx="92.7281" cy="54.7281" r="14.7281" fill="#1F8505"/>
<path d="M56.2005 72.5891C56.2005 75.1851 54.096 77.2896 51.5 77.2896C48.904 77.2896 46.7995 75.1851 46.7995 72.5891C46.7995 69.9931 48.904 67.8887 51.5 67.8887C54.096 67.8887 56.2005 69.9931 56.2005 72.5891Z" fill="black"/>
<ellipse cx="84.3871" cy="72.7005" rx="4.3871" ry="4.70046" fill="black"/>
<path d="M71 82.5377C71 84.1946 69.433 85.5377 67.5 85.5377C65.567 85.5377 64 84.1946 64 82.5377C64 80.8809 65.567 79.5377 67.5 79.5377C69.433 79.5377 71 80.8809 71 82.5377Z" fill="black"/>
<path d="M67.0909 83H68V106H67L67.0909 83Z" fill="black"/>
</svg>
