<svg width="28" height="48" viewBox="0 0 28 48" fill="none" xmlns="http://www.w3.org/2000/svg">
<path d="M27.121 35.4561C27.121 40.3818 25.6202 43.2578 23.3435 44.9406C21.0187 46.6591 17.7355 47.25 13.9355 47.25C10.1354 47.25 6.85232 46.6591 4.52742 44.9406C2.25077 43.2578 0.75 40.3818 0.75 35.4561C0.75 30.5165 2.26529 26.073 4.67977 22.8809C7.09392 19.6892 10.3736 17.7822 13.9355 17.7822C17.4974 17.7822 20.777 19.6892 23.1912 22.8809C25.6057 26.073 27.121 30.5165 27.121 35.4561Z" fill="white" stroke="#104502" stroke-width="1.5"/>
<circle cx="6.96779" cy="4.64516" r="3.89516" fill="white" stroke="#104502" stroke-width="1.5"/>
<circle cx="21.6774" cy="4.64516" r="3.89516" fill="white" stroke="#104502" stroke-width="1.5"/>
<circle cx="13.9355" cy="11.6129" r="9.31452" fill="white" stroke="#104502" stroke-width="1.5"/>
</svg>
