<svg width="125" height="120" viewBox="0 0 125 120" fill="none" xmlns="http://www.w3.org/2000/svg">
<path d="M105.179 49.478C105.179 76.804 52.5893 120 52.5893 120C52.5893 120 0 76.804 0 49.478C0 22.1521 23.545 0 52.5893 0C81.6335 0 105.179 22.1521 105.179 49.478Z" fill="#B8D6B0"/>
<path d="M78.4454 53.2484C78.4454 66.5903 66.9441 77.406 52.7566 77.406C38.5691 77.406 27.0679 66.5903 27.0679 53.2484C27.0679 39.9066 38.5691 29.0909 52.7566 29.0909C66.9441 29.0909 78.4454 39.9066 78.4454 53.2484Z" fill="#1F8505"/>
<ellipse cx="31.4977" cy="39.8023" rx="11.3903" ry="10.7114" fill="#1F8505"/>
<ellipse cx="71.7135" cy="39.8023" rx="11.3903" ry="10.7114" fill="#1F8505"/>
<path d="M43.4637 52.7921C43.4637 54.6801 41.8362 56.2106 39.8285 56.2106C37.8209 56.2106 36.1933 54.6801 36.1933 52.7921C36.1933 50.9041 37.8209 49.3736 39.8285 49.3736C41.8362 49.3736 43.4637 50.9041 43.4637 52.7921Z" fill="black"/>
<ellipse cx="65.2625" cy="52.8731" rx="3.39286" ry="3.41852" fill="black"/>
<path d="M54.9097 60.0275C54.9097 61.2324 53.6978 62.2093 52.2029 62.2093C50.708 62.2093 49.4961 61.2324 49.4961 60.0275C49.4961 58.8225 50.708 57.8456 52.2029 57.8456C53.6978 57.8456 54.9097 58.8225 54.9097 60.0275Z" fill="black"/>
<ellipse cx="70.9418" cy="80.9231" rx="16.0326" ry="15.0769" fill="#0B2E02"/>
<rect width="57.802" height="5.55789" transform="matrix(0.728485 -0.685062 0.728485 0.685062 67.5063 79.598)" fill="#0B2E02"/>
<rect width="15.5621" height="6.66946" transform="matrix(0.728485 0.685062 -0.728485 0.685062 102.326 54.4686)" fill="#0B2E02"/>
<rect width="15.5621" height="5.55789" transform="matrix(0.728485 0.685062 -0.728485 0.685062 113.663 43.8075)" fill="#0B2E02"/>
<ellipse cx="70.9417" cy="80.9231" rx="9.16148" ry="8.61538" fill="#95C289"/>
</svg>
